solid v3d.csg
  facet normal -0.5793152095602596 0.8151036056674958 -1.1692245382616108E-15
    outer loop
      vertex -11.45282581475766 76.35297706878683 39.999999999999964
      vertex 36.10000000000002 110.14999999999998 39.99999999999996
      vertex 36.10000000000002 110.14999999999992 -1.4210854715202004E-14
    endloop
  endfacet
  facet normal -0.5793152095602596 0.8151036056674958 -1.1692245382616108E-15
    outer loop
      vertex 36.10000000000002 110.14999999999992 -1.4210854715202004E-14
      vertex -11.45282581475767 76.35297706878676 0.0
      vertex -11.45282581475766 76.35297706878683 39.999999999999964
    endloop
  endfacet
  facet normal 5.709930466447361E-17 -2.905566621874472E-16 -1.0
    outer loop
      vertex 36.09524471741854 61.2400003753386 7.10701899376444E-15
      vertex -11.452825814757682 76.35297706878677 -8.437348294429425E-15
      vertex 36.10000000000001 110.14999999999992 -2.435370992891378E-14
    endloop
  endfacet
  facet normal 5.709930466447361E-17 -2.905566621874472E-16 -1.0
    outer loop
      vertex 36.10000000000001 110.14999999999992 -2.435370992891378E-14
      vertex 36.1 61.24338007763172 7.105427357600989E-15
      vertex 36.09524471741854 61.2400003753386 7.10701899376444E-15
    endloop
  endfacet
  facet normal 1.0325822892187905E-16 -1.4528559464713406E-16 -1.0
    outer loop
      vertex 36.09524471741854 61.2400003753386 7.1054273576009916E-15
      vertex 1.6891376604381616 36.78669041416112 7.1054273576009916E-15
      vertex -11.452825814757682 76.35297706878677 -6.7053176943786E-30
    endloop
  endfacet
  facet normal -3.4519448272768754E-29 -2.90571189294201E-16 -1.0
    outer loop
      vertex 36.1 61.24338007763172 7.1054273576009916E-15
      vertex 36.10000000000003 110.14999999999992 -7.105427357601002E-15
      vertex 70.50610705698391 85.69669003881174 -6.7053176943786E-30
    endloop
  endfacet
  facet normal 2.700776489022693E-16 -3.8010762887335296E-16 -1.0
    outer loop
      vertex 1.6891376604381616 36.78669041416112 1.8621463113008896E-14
      vertex 36.09524471741854 61.2400003753386 7.105427357600989E-15
      vertex 36.09706107373854 61.2345319021565 7.109167387329644E-15
    endloop
  endfacet
  facet normal 2.700776489022693E-16 -3.8010762887335296E-16 -1.0
    outer loop
      vertex 36.09706107373854 61.2345319021565 7.109167387329644E-15
      vertex 6.710737385376328 21.668245247524275 2.896135735612856E-14
      vertex 1.6891376604381616 36.78669041416112 1.8621463113008896E-14
    endloop
  endfacet
  facet normal -1.8002319829371396E-31 -1.7958287113529578E-16 -1.0
    outer loop
      vertex 36.09706107373854 61.2345319021565 7.1054273576009916E-15
      vertex 49.23902454888094 21.668245247524233 1.4210854715201988E-14
      vertex 6.710737385376328 21.668245247524275 1.4210854715201988E-14
    endloop
  endfacet
  facet normal 1.569886745317211E-31 -1.7958287113529563E-16 -1.0
    outer loop
      vertex 36.09706107373854 61.2345319021565 7.105427357600989E-15
      vertex 36.10293892626145 61.23453190215651 7.106147186928783E-15
      vertex 49.23902454888094 21.668245247524233 3.4165830401200477E-14
    endloop
  endfacet
  facet normal 1.569886745317211E-31 -1.7958287113529563E-16 -1.0
    outer loop
      vertex 65.48926261462364 21.668245247524233 3.61559106044599E-14
      vertex 49.23902454888094 21.668245247524233 3.4165830401200477E-14
      vertex 36.10293892626145 61.23453190215651 7.106147186928783E-15
    endloop
  endfacet
  facet normal 0.0 -1.7958287113529563E-16 -1.0
    outer loop
      vertex 36.10293892626145 61.23453190215651 7.1054273576009916E-15
      vertex 78.6312260898217 61.23453190215651 7.1054273576009916E-15
      vertex 65.48926261462364 21.668245247524233 1.4210854715201988E-14
    endloop
  endfacet
  facet normal -6.041074754325564E-20 -4.697940003159444E-16 -1.0
    outer loop
      vertex 36.10293892626145 61.23453190215651 7.105427357601002E-15
      vertex 36.1047552825815 61.24000037533862 7.101687327872322E-15
      vertex 78.6312260898217 61.23453190215651 1.8972142827936404E-15
    endloop
  endfacet
  facet normal -6.041074754325564E-20 -4.697940003159444E-16 -1.0
    outer loop
      vertex 83.65282581475768 76.35297706878674 -8.442679960321493E-15
      vertex 78.6312260898217 61.23453190215651 1.8972142827936404E-15
      vertex 36.1047552825815 61.24000037533862 7.101687327872322E-15
    endloop
  endfacet
  facet normal -1.0331864802371369E-16 -1.4520060772514414E-16 -1.0
    outer loop
      vertex 36.107694208842936 61.24884855081387 7.107234620891902E-15
      vertex 70.50610705698391 85.69669003881174 8.88263816673709E-15
      vertex 83.65282581475768 76.35297706878674 4.9840798259587346E-15
    endloop
  endfacet
  facet normal -1.0331864802371369E-16 -1.4520060772514414E-16 -1.0
    outer loop
      vertex 83.65282581475768 76.35297706878674 4.9840798259587346E-15
      vertex 36.10475528258148 61.24000037533862 7.1054273576009916E-15
      vertex 36.107694208842936 61.24884855081387 7.107234620891902E-15
    endloop
  endfacet
  facet normal 0.0 0.0 -1.0
    outer loop
      vertex 36.10475528258148 61.24000037533862 7.1054273576009916E-15
      vertex 36.1 61.24338007763172 7.1054273576009916E-15
      vertex 36.107694208842936 61.24884855081387 7.1054273576009916E-15
    endloop
  endfacet
  facet normal -0.949019508355406 -0.31521734210043634 4.0902635537735845E-16
    outer loop
      vertex -11.452825814757682 76.35297706878683 39.999999999999964
      vertex -11.452825814757682 76.35297706878677 -6.7053176943786E-30
      vertex 1.6891376604381616 36.78669041416112 7.1054273576009916E-15
    endloop
  endfacet
  facet normal -0.9490195083554059 -0.3152173421004365 5.796173872201706E-16
    outer loop
      vertex 6.7107373853763335 21.668245247524332 39.99999999999998
      vertex -11.452825814757716 76.3529770687868 39.999999999999964
      vertex 1.6891376604381563 36.786690414161114 7.105427357601002E-15
    endloop
  endfacet
  facet normal -0.9490195083554059 -0.3152173421004365 5.796173872201706E-16
    outer loop
      vertex 1.6891376604381563 36.786690414161114 7.105427357601002E-15
      vertex 6.710737385376329 21.668245247524275 1.4210854715202004E-14
      vertex 6.7107373853763335 21.668245247524332 39.99999999999998
    endloop
  endfacet
  facet normal -1.0024519440837223E-15 -1.0 1.4702628513227937E-15
    outer loop
      vertex 6.710737385376328 21.668245247524332 39.999999999999986
      vertex 6.710737385376328 21.668245247524275 1.4210854715201988E-14
      vertex 49.23902454888094 21.668245247524233 1.4210854715201988E-14
    endloop
  endfacet
  facet normal -7.576216955265168E-16 -1.0 1.401600136724057E-15
    outer loop
      vertex 65.48926261462364 21.668245247524204 2.1316282072803006E-14
      vertex 65.48926261462364 21.668245247524275 39.999999999999986
      vertex 49.23902454888094 21.66824524752422 1.7763568394002505E-14
    endloop
  endfacet
  facet normal -7.576216955265168E-16 -1.0 1.401600136724057E-15
    outer loop
      vertex 6.710737385376326 21.668245247524336 39.999999999999986
      vertex 49.23902454888094 21.66824524752422 1.7763568394002505E-14
      vertex 65.48926261462364 21.668245247524275 39.999999999999986
    endloop
  endfacet
  facet normal 0.9490195083554058 -0.3152173421004368 2.7268423691819324E-16
    outer loop
      vertex 65.48926261462364 21.668245247524275 39.999999999999986
      vertex 65.48926261462364 21.668245247524233 1.4210854715201988E-14
      vertex 78.6312260898217 61.2345319021565 7.1054273576009916E-15
    endloop
  endfacet
  facet normal 0.9490195083554058 -0.31521734210043684 3.091292731841202E-16
    outer loop
      vertex 83.65282581475766 76.35297706878673 -7.105427357601002E-15
      vertex 83.65282581475768 76.35297706878679 39.999999999999964
      vertex 78.63122608982168 61.23453190215649 7.105427357601002E-15
    endloop
  endfacet
  facet normal 0.9490195083554058 -0.31521734210043684 3.091292731841202E-16
    outer loop
      vertex 65.48926261462361 21.668245247524286 39.99999999999999
      vertex 78.63122608982168 61.23453190215649 7.105427357601002E-15
      vertex 83.65282581475768 76.35297706878679 39.999999999999964
    endloop
  endfacet
  facet normal 0.5793152095602602 0.8151036056674954 -1.077326780275944E-15
    outer loop
      vertex 36.10000000000003 110.14999999999998 39.99999999999996
      vertex 70.50610705698391 85.69669003881174 -6.7053176943786E-30
      vertex 36.10000000000003 110.14999999999992 -7.105427357601002E-15
    endloop
  endfacet
  facet normal 0.5793152095602602 0.8151036056674955 -1.1650699943434632E-15
    outer loop
      vertex 70.5061070569839 85.69669003881172 0.0
      vertex 59.87641290738086 93.2514885343919 12.35791556655684
      vertex 83.65282581475769 76.35297706878679 39.99999999999996
    endloop
  endfacet
  facet normal 0.5793152095602602 0.8151036056674955 -1.1650699943434632E-15
    outer loop
      vertex 83.65282581475769 76.35297706878679 39.99999999999996
      vertex 83.65282581475768 76.35297706878674 0.0
      vertex 70.5061070569839 85.69669003881172 0.0
    endloop
  endfacet
  facet normal 0.5793152095602602 0.8151036056674955 -1.4099570301664239E-15
    outer loop
      vertex 59.876412907380846 93.25148853439191 12.357915566556843
      vertex 36.10000000000003 110.14999999999998 39.99999999999996
      vertex 83.65282581475768 76.3529770687868 39.999999999999964
    endloop
  endfacet
  facet normal 0.41033488183006067 -0.577346211856357 0.7059012936725819
    outer loop
      vertex 36.1 110.15 39.99999999999996
      vertex 36.09524471741854 61.24000037533862 1.4210854715201988E-14
      vertex 36.1 61.24338007763172 7.1054273576009916E-15
    endloop
  endfacet
  facet normal 0.4103348818297944 -0.5773462118567424 0.7059012936724215
    outer loop
      vertex 36.09524471741854 61.24000037533862 1.4210854715201988E-14
      vertex 36.1 110.15 39.99999999999996
      vertex -11.452825814757675 76.35297706878683 39.999999999999964
    endloop
  endfacet
  facet normal 0.6680437384451398 0.22189108841844243 0.7102688986607261
    outer loop
      vertex 36.09524471741852 61.2400003753386 1.4210854715201988E-14
      vertex 6.710737385376335 21.668245247524304 39.999999999999986
      vertex 36.09706107373854 61.23453190215647 7.1054273576009916E-15
    endloop
  endfacet
  facet normal 0.6680437384452959 0.22189108841870528 0.710268898660497
    outer loop
      vertex 6.710737385376335 21.668245247524304 39.999999999999986
      vertex 36.09524471741852 61.2400003753386 1.4210854715201988E-14
      vertex -11.452825814757682 76.35297706878683 39.999999999999964
    endloop
  endfacet
  facet normal 0.0 0.7109506360010575 0.7032419165334871
    outer loop
      vertex 36.09706107373854 61.2345319021565 7.1054273576009916E-15
      vertex 65.48926261462364 21.668245247524275 39.999999999999986
      vertex 36.102938926261466 61.2345319021565 7.1054273576009916E-15
    endloop
  endfacet
  facet normal 3.4377236102784526E-16 0.7109506360014143 0.7032419165331263
    outer loop
      vertex 65.48926261462364 21.668245247524275 39.999999999999986
      vertex 36.09706107373854 61.2345319021565 7.1054273576009916E-15
      vertex 6.710737385376328 21.668245247524304 39.999999999999986
    endloop
  endfacet
  facet normal -0.6680437384452961 0.2218910884187058 0.7102688986604968
    outer loop
      vertex 36.1047552825815 61.24000037533862 1.4210854715201988E-14
      vertex 65.48926261462361 21.668245247524275 39.999999999999986
      vertex 83.65282581475768 76.3529770687868 39.999999999999964
    endloop
  endfacet
  facet normal -0.6680437384447053 0.22189108841847333 0.710268898661125
    outer loop
      vertex 65.48926261462361 21.668245247524275 39.999999999999986
      vertex 36.1047552825815 61.24000037533862 1.4210854715201988E-14
      vertex 36.10293892626148 61.2345319021565 1.4210854715201988E-14
    endloop
  endfacet
  facet normal -0.4103348818310269 -0.5773462118548034 0.7059012936732909
    outer loop
      vertex 36.100000000000016 61.24338007763176 7.1054273576009916E-15
      vertex 36.1047552825815 61.24000037533863 7.1054273576009916E-15
      vertex 83.65282581475768 76.3529770687868 39.999999999999964
    endloop
  endfacet
  facet normal -0.410334881829795 -0.5773462118567431 0.7059012936724206
    outer loop
      vertex 83.65282581475768 76.3529770687868 39.999999999999964
      vertex 36.10000000000003 110.14999999999998 39.99999999999996
      vertex 36.100000000000016 61.24338007763176 7.1054273576009916E-15
    endloop
  endfacet
endsolid v3d.csg
