solid v3d.csg
  facet normal -0.5793152095602596 0.8151036056674958 -2.338449076523221E-15
    outer loop
      vertex -11.45282581475768 76.35297706878684 19.99999999999998
      vertex 36.10000000000002 110.14999999999998 19.99999999999998
      vertex 36.10000000000002 110.14999999999992 0.0
    endloop
  endfacet
  facet normal -0.5793152095602596 0.8151036056674958 -2.338449076523221E-15
    outer loop
      vertex 36.10000000000002 110.14999999999992 0.0
      vertex -11.452825814757684 76.35297706878677 0.0
      vertex -11.45282581475768 76.35297706878684 19.99999999999998
    endloop
  endfacet
  facet normal 2.854965233223681E-17 -1.452783310937236E-16 -1.0
    outer loop
      vertex 36.09524471741854 61.2400003753386 -1.4101424783186818E-18
      vertex -11.452825814757682 76.35297706878677 -2.1227576741205694E-15
      vertex 36.10000000000001 110.14999999999992 1.1978667109008874E-14
    endloop
  endfacet
  facet normal 2.854965233223681E-17 -1.452783310937236E-16 -1.0
    outer loop
      vertex 36.10000000000001 110.14999999999992 1.1978667109008874E-14
      vertex 36.1 61.24338007763172 -6.3108872417680944E-30
      vertex 36.09524471741854 61.2400003753386 -1.4101424783186818E-18
    endloop
  endfacet
  facet normal 5.162911446093951E-17 -7.264279732356703E-17 -1.0
    outer loop
      vertex 36.09524471741854 61.2400003753386 -4.733165431326071E-30
      vertex 1.6891376604381616 36.78669041416112 -4.733165431326071E-30
      vertex -11.452825814757682 76.35297706878677 -3.552713678800504E-15
    endloop
  endfacet
  facet normal -1.7259724136384377E-29 -1.452855946471005E-16 -1.0
    outer loop
      vertex 36.1 61.24338007763172 -4.733165431326071E-30
      vertex 36.10000000000003 110.14999999999992 -7.105427357601002E-15
      vertex 70.50610705698391 85.69669003881174 -3.552713678800504E-15
    endloop
  endfacet
  facet normal 1.350388244511346E-16 -1.900538144366765E-16 -1.0
    outer loop
      vertex 1.6891376604381616 36.78669041416112 1.15160357554079E-14
      vertex 36.09524471741854 61.2400003753386 -6.3108872417680944E-30
      vertex 36.09706107373854 61.2345319021565 3.740029728647953E-18
    endloop
  endfacet
  facet normal 1.350388244511346E-16 -1.900538144366765E-16 -1.0
    outer loop
      vertex 36.09706107373854 61.2345319021565 3.740029728647953E-18
      vertex 6.710737385376328 21.668245247524275 2.1855929998527564E-14
      vertex 1.6891376604381616 36.78669041416112 1.15160357554079E-14
    endloop
  endfacet
  facet normal -9.001159914685698E-32 -8.97914355676479E-17 -1.0
    outer loop
      vertex 36.09706107373854 61.2345319021565 -4.733165431326071E-30
      vertex 49.23902454888094 21.668245247524233 3.552713678800494E-15
      vertex 6.710737385376328 21.668245247524275 3.552713678800494E-15
    endloop
  endfacet
  facet normal 7.849433726586055E-32 -8.979143556764782E-17 -1.0
    outer loop
      vertex 36.09706107373854 61.2345319021565 -3.1554436208840472E-30
      vertex 36.10293892626145 61.23453190215651 7.198293278035081E-19
      vertex 49.23902454888094 21.668245247524233 -8.081518910713952E-15
    endloop
  endfacet
  facet normal 7.849433726586055E-32 -8.979143556764782E-17 -1.0
    outer loop
      vertex 65.48926261462364 21.668245247524233 -6.091438707454526E-15
      vertex 49.23902454888094 21.668245247524233 -8.081518910713952E-15
      vertex 36.10293892626145 61.23453190215651 7.198293278035081E-19
    endloop
  endfacet
  facet normal 0.0 -8.979143556764784E-17 -1.0
    outer loop
      vertex 36.10293892626145 61.23453190215651 -4.733165431326071E-30
      vertex 78.6312260898217 61.23453190215651 -4.733165431326071E-30
      vertex 65.48926261462364 21.668245247524233 3.552713678800494E-15
    endloop
  endfacet
  facet normal -3.020537377162782E-20 -2.348970001579722E-16 -1.0
    outer loop
      vertex 36.10293892626145 61.23453190215651 -6.3108872417680944E-30
      vertex 36.1047552825815 61.24000037533862 -3.740029728673197E-18
      vertex 78.6312260898217 61.23453190215651 -5.2082130748073615E-15
    endloop
  endfacet
  facet normal -3.020537377162782E-20 -2.348970001579722E-16 -1.0
    outer loop
      vertex 83.65282581475768 76.35297706878674 -1.5548107317922494E-14
      vertex 78.6312260898217 61.23453190215651 -5.2082130748073615E-15
      vertex 36.1047552825815 61.24000037533862 -3.740029728673197E-18
    endloop
  endfacet
  facet normal -5.165932401185687E-17 -7.260030386257207E-17 -1.0
    outer loop
      vertex 36.107694208842936 61.24884855081387 1.807263290906445E-18
      vertex 70.50610705698391 85.69669003881174 1.777210809136095E-15
      vertex 83.65282581475768 76.35297706878674 -2.1213475316422618E-15
    endloop
  endfacet
  facet normal -5.165932401185687E-17 -7.260030386257207E-17 -1.0
    outer loop
      vertex 83.65282581475768 76.35297706878674 -2.1213475316422618E-15
      vertex 36.10475528258148 61.24000037533862 -4.733165431326071E-30
      vertex 36.107694208842936 61.24884855081387 1.807263290906445E-18
    endloop
  endfacet
  facet normal 0.0 0.0 -1.0
    outer loop
      vertex 36.10475528258148 61.24000037533862 -4.733165431326071E-30
      vertex 36.1 61.24338007763172 -4.733165431326071E-30
      vertex 36.107694208842936 61.24884855081387 -4.733165431326071E-30
    endloop
  endfacet
  facet normal -0.9490195083554059 -0.3152173421004364 8.180527107547167E-16
    outer loop
      vertex -11.452825814757682 76.35297706878683 19.999999999999982
      vertex -11.452825814757682 76.35297706878677 -3.552713678800504E-15
      vertex 1.6891376604381616 36.78669041416112 -4.733165431326071E-30
    endloop
  endfacet
  facet normal -0.9490195083554059 -0.31521734210043645 1.159234774440341E-15
    outer loop
      vertex 6.71073738537633 21.668245247524332 19.99999999999999
      vertex -11.452825814757716 76.35297706878681 19.999999999999982
      vertex 1.6891376604381527 36.786690414161114 0.0
    endloop
  endfacet
  facet normal -0.9490195083554059 -0.31521734210043645 1.159234774440341E-15
    outer loop
      vertex 1.6891376604381527 36.786690414161114 0.0
      vertex 6.7107373853763255 21.668245247524275 3.552713678800501E-15
      vertex 6.71073738537633 21.668245247524332 19.99999999999999
    endloop
  endfacet
  facet normal -1.0024519440837223E-15 -1.0 2.9405257026455875E-15
    outer loop
      vertex 6.710737385376328 21.668245247524332 19.99999999999999
      vertex 6.710737385376328 21.668245247524275 3.552713678800494E-15
      vertex 49.23902454888094 21.668245247524233 3.552713678800494E-15
    endloop
  endfacet
  facet normal -7.576216955265168E-16 -1.0 2.803200273448114E-15
    outer loop
      vertex 65.48926261462364 21.668245247524233 1.0658141036401503E-14
      vertex 65.48926261462364 21.668245247524275 19.999999999999996
      vertex 49.23902454888095 21.668245247524247 0.0
    endloop
  endfacet
  facet normal -7.576216955265168E-16 -1.0 2.803200273448114E-15
    outer loop
      vertex 6.710737385376327 21.668245247524307 19.999999999999996
      vertex 49.23902454888095 21.668245247524247 0.0
      vertex 65.48926261462364 21.668245247524275 19.999999999999996
    endloop
  endfacet
  facet normal 0.9490195083554058 -0.31521734210043684 5.453684738363866E-16
    outer loop
      vertex 65.48926261462364 21.668245247524275 19.99999999999999
      vertex 65.48926261462364 21.668245247524233 3.552713678800494E-15
      vertex 78.6312260898217 61.2345319021565 -4.733165431326071E-30
    endloop
  endfacet
  facet normal 0.9490195083554058 -0.3152173421004367 6.182585463682402E-16
    outer loop
      vertex 83.65282581475765 76.35297706878674 0.0
      vertex 83.65282581475766 76.3529770687868 19.999999999999986
      vertex 78.63122608982168 61.2345319021565 0.0
    endloop
  endfacet
  facet normal 0.9490195083554058 -0.3152173421004367 6.182585463682402E-16
    outer loop
      vertex 65.4892626146236 21.668245247524283 19.999999999999986
      vertex 78.63122608982168 61.2345319021565 0.0
      vertex 83.65282581475766 76.3529770687868 19.999999999999986
    endloop
  endfacet
  facet normal 0.5793152095602604 0.8151036056674953 -2.1546535605518884E-15
    outer loop
      vertex 36.10000000000003 110.14999999999998 19.99999999999998
      vertex 70.50610705698391 85.69669003881174 -3.552713678800504E-15
      vertex 36.10000000000003 110.14999999999992 -7.105427357601002E-15
    endloop
  endfacet
  facet normal 0.5793152095602602 0.8151036056674954 -2.330139988686926E-15
    outer loop
      vertex 70.5061070569839 85.69669003881172 -1.4210854715202004E-14
      vertex 59.876412907380846 93.2514885343919 6.17895778327842
      vertex 83.65282581475769 76.35297706878679 19.999999999999986
    endloop
  endfacet
  facet normal 0.5793152095602602 0.8151036056674954 -2.330139988686926E-15
    outer loop
      vertex 83.65282581475769 76.35297706878679 19.999999999999986
      vertex 83.65282581475768 76.35297706878674 0.0
      vertex 70.5061070569839 85.69669003881172 -1.4210854715202004E-14
    endloop
  endfacet
  facet normal 0.5793152095602602 0.8151036056674954 -2.8199140603328474E-15
    outer loop
      vertex 59.876412907380846 93.25148853439191 6.178957783278418
      vertex 36.10000000000003 110.14999999999998 19.99999999999998
      vertex 83.65282581475768 76.3529770687868 19.999999999999982
    endloop
  endfacet
  facet normal 0.2597842059882224 -0.3655195643089918 0.8938163202954138
    outer loop
      vertex 36.1 110.15 19.99999999999998
      vertex 36.09524471741854 61.24000037533862 3.552713678800494E-15
      vertex 36.1 61.24338007763172 -4.733165431326071E-30
    endloop
  endfacet
  facet normal 0.25978420598841373 -0.3655195643100014 0.8938163202949454
    outer loop
      vertex 36.09524471741854 61.24000037533862 3.552713678800494E-15
      vertex 36.1 110.15 19.99999999999998
      vertex -11.452825814757675 76.35297706878683 19.999999999999982
    endloop
  endfacet
  facet normal 0.42137633544508907 0.1399603773297945 0.8960206898864387
    outer loop
      vertex 36.09524471741852 61.2400003753386 3.552713678800494E-15
      vertex 6.710737385376335 21.668245247524304 19.99999999999999
      vertex 36.09706107373854 61.23453190215647 -4.733165431326071E-30
    endloop
  endfacet
  facet normal 0.42137633544490904 0.13996037733001324 0.8960206898864891
    outer loop
      vertex 6.710737385376335 21.668245247524304 19.99999999999999
      vertex 36.09524471741852 61.2400003753386 3.552713678800494E-15
      vertex -11.452825814757682 76.35297706878683 19.999999999999982
    endloop
  endfacet
  facet normal 0.0 0.4511224721539978 0.8924620524804769
    outer loop
      vertex 36.09706107373854 61.2345319021565 -4.733165431326071E-30
      vertex 65.48926261462364 21.668245247524275 19.99999999999999
      vertex 36.102938926261466 61.2345319021565 -4.733165431326071E-30
    endloop
  endfacet
  facet normal 3.0538943397313613E-16 0.4511224721543625 0.8924620524802925
    outer loop
      vertex 65.48926261462364 21.668245247524275 19.99999999999999
      vertex 36.09706107373854 61.2345319021565 -4.733165431326071E-30
      vertex 6.710737385376328 21.668245247524304 19.999999999999993
    endloop
  endfacet
  facet normal -0.42137633544490927 0.13996037733001374 0.896020689886489
    outer loop
      vertex 36.1047552825815 61.24000037533862 3.552713678800494E-15
      vertex 65.48926261462361 21.668245247524275 19.999999999999993
      vertex 83.65282581475768 76.3529770687868 19.999999999999982
    endloop
  endfacet
  facet normal -0.42137633544400355 0.13996037732895944 0.8960206898870795
    outer loop
      vertex 65.48926261462361 21.668245247524275 19.999999999999993
      vertex 36.1047552825815 61.24000037533862 3.552713678800494E-15
      vertex 36.10293892626148 61.2345319021565 3.552713678800494E-15
    endloop
  endfacet
  facet normal -0.25978420598900226 -0.36551956430850385 0.8938163202953867
    outer loop
      vertex 36.100000000000016 61.24338007763176 -4.733165431326071E-30
      vertex 36.1047552825815 61.24000037533863 -4.733165431326071E-30
      vertex 83.65282581475768 76.3529770687868 19.999999999999982
    endloop
  endfacet
  facet normal -0.2597842059884143 -0.365519564310002 0.893816320294945
    outer loop
      vertex 83.65282581475768 76.3529770687868 19.999999999999982
      vertex 36.10000000000003 110.14999999999998 19.99999999999998
      vertex 36.100000000000016 61.24338007763176 -4.733165431326071E-30
    endloop
  endfacet
endsolid v3d.csg
