solid v3d.csg
  facet normal -0.5793152095602596 0.8151036056674958 -4.676898153046442E-15
    outer loop
      vertex -11.452825814757682 76.35297706878683 9.999999999999993
      vertex 36.10000000000001 110.14999999999998 9.999999999999986
      vertex 36.10000000000001 110.14999999999992 0.0
    endloop
  endfacet
  facet normal -0.5793152095602596 0.8151036056674958 -4.676898153046442E-15
    outer loop
      vertex 36.10000000000001 110.14999999999992 0.0
      vertex -11.452825814757684 76.35297706878677 0.0
      vertex -11.452825814757682 76.35297706878683 9.999999999999993
    endloop
  endfacet
  facet normal 1.427482616611837E-17 -7.26391655468618E-17 -1.0
    outer loop
      vertex 36.09524471741854 61.2400003753386 -3.5541238212788165E-15
      vertex -11.452825814757682 76.35297706878677 -5.67547135292107E-15
      vertex 36.10000000000001 110.14999999999992 8.425953430208376E-15
    endloop
  endfacet
  facet normal 1.427482616611837E-17 -7.26391655468618E-17 -1.0
    outer loop
      vertex 36.10000000000001 110.14999999999992 8.425953430208376E-15
      vertex 36.1 61.24338007763172 -3.552713678800504E-15
      vertex 36.09524471741854 61.2400003753386 -3.5541238212788165E-15
    endloop
  endfacet
  facet normal 2.581455723046974E-17 -3.6321398661783514E-17 -1.0
    outer loop
      vertex 36.09524471741854 61.2400003753386 -3.552713678800503E-15
      vertex 1.6891376604381616 36.78669041416112 -3.552713678800503E-15
      vertex -11.452825814757682 76.35297706878677 -5.329070518200753E-15
    endloop
  endfacet
  facet normal -8.596107718512168E-30 -7.264279732355025E-17 -1.0
    outer loop
      vertex 36.1 61.24338007763172 -3.552713678800503E-15
      vertex 36.10000000000003 110.14999999999992 -7.105427357601002E-15
      vertex 70.50610705698391 85.69669003881174 -5.329070518200753E-15
    endloop
  endfacet
  facet normal 6.751941222556733E-17 -9.502690721833825E-17 -1.0
    outer loop
      vertex 1.6891376604381616 36.78669041416112 -1.3755580121148537E-14
      vertex 36.09524471741854 61.2400003753386 -3.552713678800504E-15
      vertex 36.09706107373854 61.2345319021565 -3.553830628940902E-15
    endloop
  endfacet
  facet normal 6.751941222556733E-17 -9.502690721833825E-17 -1.0
    outer loop
      vertex 36.09706107373854 61.2345319021565 -3.553830628940902E-15
      vertex 6.710737385376328 21.668245247524275 -1.6843562614455384E-14
      vertex 1.6891376604381616 36.78669041416112 -1.3755580121148537E-14
    endloop
  endfacet
  facet normal -4.500579957342849E-32 -4.489571778382395E-17 -1.0
    outer loop
      vertex 36.09706107373854 61.2345319021565 -3.552713678800503E-15
      vertex 49.23902454888094 21.668245247524233 -1.776356839400254E-15
      vertex 6.710737385376328 21.668245247524275 -1.776356839400254E-15
    endloop
  endfacet
  facet normal 3.924716863293027E-32 -4.489571778382391E-17 -1.0
    outer loop
      vertex 36.09706107373854 61.2345319021565 -3.552713678800504E-15
      vertex 36.10293892626145 61.23453190215651 -3.5519938494726974E-15
      vertex 49.23902454888094 21.668245247524233 -1.1634232589514453E-14
    endloop
  endfacet
  facet normal 3.924716863293027E-32 -4.489571778382391E-17 -1.0
    outer loop
      vertex 65.48926261462364 21.668245247524233 -9.644152386255027E-15
      vertex 49.23902454888094 21.668245247524233 -1.1634232589514453E-14
      vertex 36.10293892626145 61.23453190215651 -3.5519938494726974E-15
    endloop
  endfacet
  facet normal 0.0 -4.489571778382392E-17 -1.0
    outer loop
      vertex 36.10293892626145 61.23453190215651 -3.552713678800503E-15
      vertex 78.6312260898217 61.23453190215651 -3.552713678800503E-15
      vertex 65.48926261462364 21.668245247524233 -1.776356839400254E-15
    endloop
  endfacet
  facet normal -1.510268688581391E-20 -1.174485000789861E-16 -1.0
    outer loop
      vertex 36.10293892626145 61.23453190215651 -3.552713678800504E-15
      vertex 36.1047552825815 61.24000037533862 -3.551596728660113E-15
      vertex 78.6312260898217 61.23453190215651 -8.760926753607856E-15
    endloop
  endfacet
  facet normal -1.510268688581391E-20 -1.174485000789861E-16 -1.0
    outer loop
      vertex 83.65282581475768 76.35297706878674 -5.672944260302367E-15
      vertex 78.6312260898217 61.23453190215651 -8.760926753607856E-15
      vertex 36.1047552825815 61.24000037533862 -3.551596728660113E-15
    endloop
  endfacet
  facet normal -2.58296620059284E-17 -3.6300151931286036E-17 -1.0
    outer loop
      vertex 36.107694208842936 61.24884855081387 -3.5509064155095945E-15
      vertex 70.50610705698391 85.69669003881174 -1.7755028696644028E-15
      vertex 83.65282581475768 76.35297706878674 -5.674061210442761E-15
    endloop
  endfacet
  facet normal -2.58296620059284E-17 -3.6300151931286036E-17 -1.0
    outer loop
      vertex 83.65282581475768 76.35297706878674 -5.674061210442761E-15
      vertex 36.10475528258148 61.24000037533862 -3.552713678800504E-15
      vertex 36.107694208842936 61.24884855081387 -3.5509064155095945E-15
    endloop
  endfacet
  facet normal 0.0 0.0 -1.0
    outer loop
      vertex 36.10475528258148 61.24000037533862 -3.552713678800503E-15
      vertex 36.1 61.24338007763172 -3.552713678800503E-15
      vertex 36.107694208842936 61.24884855081387 -3.552713678800503E-15
    endloop
  endfacet
  facet normal -0.9490195083554059 -0.3152173421004364 1.6361054215094334E-15
    outer loop
      vertex -11.452825814757682 76.35297706878683 9.999999999999988
      vertex -11.452825814757682 76.35297706878677 -5.329070518200753E-15
      vertex 1.6891376604381616 36.78669041416112 -3.552713678800503E-15
    endloop
  endfacet
  facet normal -0.9490195083554059 -0.3152173421004365 2.3184695488806826E-15
    outer loop
      vertex 6.710737385376329 21.66824524752433 9.999999999999991
      vertex -11.452825814757722 76.35297706878681 9.999999999999988
      vertex 1.689137660438151 36.786690414161114 -3.552713678800501E-15
    endloop
  endfacet
  facet normal -0.9490195083554059 -0.3152173421004365 2.3184695488806826E-15
    outer loop
      vertex 1.689137660438151 36.786690414161114 -3.552713678800501E-15
      vertex 6.710737385376324 21.668245247524272 -1.7763568394002505E-15
      vertex 6.710737385376329 21.66824524752433 9.999999999999991
    endloop
  endfacet
  facet normal -1.0024519440837227E-15 -1.0 5.881051405291175E-15
    outer loop
      vertex 6.710737385376328 21.668245247524332 9.999999999999991
      vertex 6.710737385376328 21.668245247524275 -1.776356839400254E-15
      vertex 49.23902454888094 21.668245247524233 -1.776356839400254E-15
    endloop
  endfacet
  facet normal -7.576216955265168E-16 -1.0 5.606400546896228E-15
    outer loop
      vertex 65.48926261462364 21.66824524752422 -3.552713678800501E-15
      vertex 65.48926261462364 21.668245247524275 9.999999999999993
      vertex 49.239024548880934 21.668245247524233 0.0
    endloop
  endfacet
  facet normal -7.576216955265168E-16 -1.0 5.606400546896228E-15
    outer loop
      vertex 6.710737385376328 21.668245247524318 9.999999999999993
      vertex 49.239024548880934 21.668245247524233 0.0
      vertex 65.48926261462364 21.668245247524275 9.999999999999993
    endloop
  endfacet
  facet normal 0.9490195083554058 -0.31521734210043684 1.0907369476727732E-15
    outer loop
      vertex 65.48926261462364 21.668245247524275 9.999999999999991
      vertex 65.48926261462364 21.668245247524233 -1.776356839400254E-15
      vertex 78.6312260898217 61.2345319021565 -3.552713678800503E-15
    endloop
  endfacet
  facet normal 0.9490195083554058 -0.3152173421004368 1.2365170927364805E-15
    outer loop
      vertex 83.65282581475766 76.35297706878673 0.0
      vertex 83.65282581475768 76.35297706878679 9.999999999999986
      vertex 78.63122608982168 61.23453190215649 -7.105427357601002E-15
    endloop
  endfacet
  facet normal 0.9490195083554058 -0.3152173421004368 1.2365170927364805E-15
    outer loop
      vertex 65.48926261462361 21.668245247524286 9.999999999999993
      vertex 78.63122608982168 61.23453190215649 -7.105427357601002E-15
      vertex 83.65282581475768 76.35297706878679 9.999999999999986
    endloop
  endfacet
  facet normal 0.5793152095602604 0.8151036056674953 -4.309307121103777E-15
    outer loop
      vertex 36.10000000000003 110.14999999999998 9.999999999999986
      vertex 70.50610705698391 85.69669003881174 -5.329070518200753E-15
      vertex 36.10000000000003 110.14999999999992 -7.105427357601002E-15
    endloop
  endfacet
  facet normal 0.5793152095602602 0.8151036056674954 -4.660279977373852E-15
    outer loop
      vertex 70.5061070569839 85.69669003881172 0.0
      vertex 59.87641290738085 93.2514885343919 3.089478891639203
      vertex 83.65282581475769 76.35297706878679 9.999999999999986
    endloop
  endfacet
  facet normal 0.5793152095602602 0.8151036056674954 -4.660279977373852E-15
    outer loop
      vertex 83.65282581475769 76.35297706878679 9.999999999999986
      vertex 83.65282581475768 76.35297706878674 0.0
      vertex 70.5061070569839 85.69669003881172 0.0
    endloop
  endfacet
  facet normal 0.5793152095602602 0.8151036056674954 -5.639828120665695E-15
    outer loop
      vertex 59.876412907380846 93.25148853439191 3.0894788916392053
      vertex 36.10000000000003 110.14999999999998 9.999999999999986
      vertex 83.65282581475768 76.3529770687868 9.999999999999988
    endloop
  endfacet
  facet normal 0.14095571469093918 -0.1983264195166037 0.9699474819894583
    outer loop
      vertex 36.1 110.15 9.999999999999986
      vertex 36.09524471741854 61.24000037533862 -1.776356839400254E-15
      vertex 36.1 61.24338007763172 -3.552713678800503E-15
    endloop
  endfacet
  facet normal 0.14095571469086277 -0.19832641951723146 0.9699474819893412
    outer loop
      vertex 36.09524471741854 61.24000037533862 -1.776356839400254E-15
      vertex 36.1 110.15 9.999999999999986
      vertex -11.452825814757675 76.35297706878683 9.999999999999988
    endloop
  endfacet
  facet normal 0.22823630059631655 0.07580881047359997 0.9706498932904107
    outer loop
      vertex 36.09524471741852 61.2400003753386 -1.776356839400254E-15
      vertex 6.710737385376335 21.668245247524304 9.999999999999991
      vertex 36.09706107373854 61.23453190215647 -3.552713678800503E-15
    endloop
  endfacet
  facet normal 0.22823630059620983 0.07580881047371545 0.9706498932904268
    outer loop
      vertex 6.710737385376335 21.668245247524304 9.999999999999991
      vertex 36.09524471741852 61.2400003753386 -1.776356839400254E-15
      vertex -11.452825814757682 76.35297706878683 9.999999999999988
    endloop
  endfacet
  facet normal 0.0 0.24503541059891662 0.9695141296302083
    outer loop
      vertex 36.09706107373854 61.2345319021565 -3.552713678800503E-15
      vertex 65.48926261462364 21.668245247524275 9.999999999999991
      vertex 36.102938926261466 61.2345319021565 -3.552713678800503E-15
    endloop
  endfacet
  facet normal 1.6587784906588336E-16 0.2450354105991504 0.9695141296301493
    outer loop
      vertex 65.48926261462364 21.668245247524275 9.999999999999991
      vertex 36.09706107373854 61.2345319021565 -3.552713678800503E-15
      vertex 6.710737385376328 21.668245247524304 9.999999999999993
    endloop
  endfacet
  facet normal -0.22823630059620995 0.07580881047371571 0.9706498932904267
    outer loop
      vertex 36.1047552825815 61.24000037533862 -1.776356839400254E-15
      vertex 65.48926261462361 21.668245247524275 9.999999999999993
      vertex 83.65282581475768 76.3529770687868 9.999999999999988
    endloop
  endfacet
  facet normal -0.22823630059561312 0.07580881047310936 0.9706498932906145
    outer loop
      vertex 65.48926261462361 21.668245247524275 9.999999999999993
      vertex 36.1047552825815 61.24000037533862 -1.776356839400254E-15
      vertex 36.10293892626148 61.2345319021565 -1.776356839400254E-15
    endloop
  endfacet
  facet normal -0.14095571469113294 -0.1983264195163498 0.9699474819894821
    outer loop
      vertex 36.100000000000016 61.24338007763176 -3.552713678800503E-15
      vertex 36.1047552825815 61.24000037533863 -3.552713678800503E-15
      vertex 83.65282581475768 76.3529770687868 9.999999999999988
    endloop
  endfacet
  facet normal -0.14095571469086307 -0.19832641951723182 0.969947481989341
    outer loop
      vertex 83.65282581475768 76.3529770687868 9.999999999999988
      vertex 36.10000000000003 110.14999999999998 9.999999999999986
      vertex 36.100000000000016 61.24338007763176 -3.552713678800503E-15
    endloop
  endfacet
endsolid v3d.csg
