solid v3d.csg
  facet normal -0.5793152095602596 0.8151036056674958 -1.5589660510154808E-15
    outer loop
      vertex -11.45282581475768 76.35297706878684 29.99999999999997
      vertex 36.10000000000002 110.14999999999998 29.99999999999997
      vertex 36.10000000000002 110.14999999999992 0.0
    endloop
  endfacet
  facet normal -0.5793152095602596 0.8151036056674958 -1.5589660510154808E-15
    outer loop
      vertex 36.10000000000002 110.14999999999992 0.0
      vertex -11.452825814757684 76.35297706878677 0.0
      vertex -11.45282581475768 76.35297706878684 29.99999999999997
    endloop
  endfacet
  facet normal 4.282447849835521E-17 -2.1791749664058535E-16 -1.0
    outer loop
      vertex 36.09524471741854 61.2400003753386 3.554305314963946E-15
      vertex -11.452825814757682 76.35297706878677 -1.199006197322992E-14
      vertex 36.10000000000001 110.14999999999992 -2.7906423607714275E-14
    endloop
  endfacet
  facet normal 4.282447849835521E-17 -2.1791749664058535E-16 -1.0
    outer loop
      vertex 36.10000000000001 110.14999999999992 -2.7906423607714275E-14
      vertex 36.1 61.24338007763172 3.5527136788004946E-15
      vertex 36.09524471741854 61.2400003753386 3.554305314963946E-15
    endloop
  endfacet
  facet normal 7.744367169140926E-17 -1.0896419598535055E-16 -1.0
    outer loop
      vertex 36.09524471741854 61.2400003753386 3.552713678800494E-15
      vertex 1.6891376604381616 36.78669041416112 3.552713678800494E-15
      vertex -11.452825814757682 76.35297706878677 -1.7763568394002552E-15
    endloop
  endfacet
  facet normal -2.5893336687874345E-29 -2.1792839197065078E-16 -1.0
    outer loop
      vertex 36.1 61.24338007763172 3.552713678800494E-15
      vertex 36.10000000000003 110.14999999999992 -7.105427357601002E-15
      vertex 70.50610705698391 85.69669003881174 -1.7763568394002552E-15
    endloop
  endfacet
  facet normal 2.0255823667670197E-16 -2.850807216550147E-16 -1.0
    outer loop
      vertex 1.6891376604381616 36.78669041416112 1.50687494342084E-14
      vertex 36.09524471741854 61.2400003753386 3.5527136788004946E-15
      vertex 36.09706107373854 61.2345319021565 3.556453708529149E-15
    endloop
  endfacet
  facet normal 2.0255823667670197E-16 -2.850807216550147E-16 -1.0
    outer loop
      vertex 36.09706107373854 61.2345319021565 3.556453708529149E-15
      vertex 6.710737385376328 21.668245247524275 2.5408643677328065E-14
      vertex 1.6891376604381616 36.78669041416112 1.50687494342084E-14
    endloop
  endfacet
  facet normal -1.2001546552914264E-31 -1.3468715335147183E-16 -1.0
    outer loop
      vertex 36.09706107373854 61.2345319021565 3.552713678800494E-15
      vertex 49.23902454888094 21.668245247524233 8.881784197001241E-15
      vertex 6.710737385376328 21.668245247524275 8.881784197001241E-15
    endloop
  endfacet
  facet normal 1.569886745317211E-31 -1.3468715335147188E-16 -1.0
    outer loop
      vertex 36.09706107373854 61.2345319021565 3.5527136788004946E-15
      vertex 36.10293892626145 61.23453190215651 3.553433508128301E-15
      vertex 49.23902454888094 21.668245247524233 -4.528805231913454E-15
    endloop
  endfacet
  facet normal 1.569886745317211E-31 -1.3468715335147188E-16 -1.0
    outer loop
      vertex 65.48926261462364 21.668245247524233 -2.5387250286540284E-15
      vertex 49.23902454888094 21.668245247524233 -4.528805231913454E-15
      vertex 36.10293892626145 61.23453190215651 3.553433508128301E-15
    endloop
  endfacet
  facet normal 0.0 -1.3468715335147166E-16 -1.0
    outer loop
      vertex 36.10293892626145 61.23453190215651 3.552713678800494E-15
      vertex 78.6312260898217 61.23453190215651 3.552713678800494E-15
      vertex 65.48926261462364 21.668245247524233 8.881784197001241E-15
    endloop
  endfacet
  facet normal -4.530806065744173E-20 -3.5234550023695825E-16 -1.0
    outer loop
      vertex 36.10293892626145 61.23453190215651 3.5527136788004946E-15
      vertex 36.1047552825815 61.24000037533862 3.5489736490718277E-15
      vertex 78.6312260898217 61.23453190215651 -1.6554993960068605E-15
    endloop
  endfacet
  facet normal -4.530806065744173E-20 -3.5234550023695825E-16 -1.0
    outer loop
      vertex 83.65282581475768 76.35297706878674 -1.1995393639121993E-14
      vertex 78.6312260898217 61.23453190215651 -1.6554993960068605E-15
      vertex 36.1047552825815 61.24000037533862 3.5489736490718277E-15
    endloop
  endfacet
  facet normal -7.748898601778528E-17 -1.0890045579385811E-16 -1.0
    outer loop
      vertex 36.107694208842936 61.24884855081387 3.554520942091405E-15
      vertex 70.50610705698391 85.69669003881174 5.3299244879365935E-15
      vertex 83.65282581475768 76.35297706878674 1.4313661471582368E-15
    endloop
  endfacet
  facet normal -7.748898601778528E-17 -1.0890045579385811E-16 -1.0
    outer loop
      vertex 83.65282581475768 76.35297706878674 1.4313661471582368E-15
      vertex 36.10475528258148 61.24000037533862 3.552713678800494E-15
      vertex 36.107694208842936 61.24884855081387 3.554520942091405E-15
    endloop
  endfacet
  facet normal 0.0 0.0 -1.0
    outer loop
      vertex 36.10475528258148 61.24000037533862 3.552713678800494E-15
      vertex 36.1 61.24338007763172 3.552713678800494E-15
      vertex 36.107694208842936 61.24884855081387 3.552713678800494E-15
    endloop
  endfacet
  facet normal -0.9490195083554059 -0.3152173421004364 5.453684738364778E-16
    outer loop
      vertex -11.452825814757682 76.35297706878683 29.999999999999975
      vertex -11.452825814757682 76.35297706878677 -1.7763568394002552E-15
      vertex 1.6891376604381616 36.78669041416112 3.552713678800494E-15
    endloop
  endfacet
  facet normal -0.949019508355406 -0.31521734210043645 7.728231829602272E-16
    outer loop
      vertex 6.71073738537633 21.66824524752433 29.99999999999999
      vertex -11.452825814757716 76.3529770687868 29.999999999999975
      vertex 1.6891376604381598 36.786690414161114 3.552713678800501E-15
    endloop
  endfacet
  facet normal -0.949019508355406 -0.31521734210043645 7.728231829602272E-16
    outer loop
      vertex 1.6891376604381598 36.786690414161114 3.552713678800501E-15
      vertex 6.710737385376333 21.668245247524275 8.881784197001252E-15
      vertex 6.71073738537633 21.66824524752433 29.99999999999999
    endloop
  endfacet
  facet normal -1.002451944083722E-15 -1.0 1.960350468430391E-15
    outer loop
      vertex 6.710737385376328 21.668245247524332 29.99999999999999
      vertex 6.710737385376328 21.668245247524275 8.881784197001241E-15
      vertex 49.23902454888094 21.668245247524233 8.881784197001241E-15
    endloop
  endfacet
  facet normal -7.576216955265166E-16 -1.0 1.868800182298742E-15
    outer loop
      vertex 65.48926261462364 21.66824524752422 3.552713678800501E-15
      vertex 65.48926261462364 21.668245247524272 29.99999999999999
      vertex 49.239024548880934 21.668245247524226 1.0658141036401503E-14
    endloop
  endfacet
  facet normal -7.576216955265166E-16 -1.0 1.868800182298742E-15
    outer loop
      vertex 6.71073738537633 21.668245247524318 29.99999999999999
      vertex 49.239024548880934 21.668245247524226 1.0658141036401503E-14
      vertex 65.48926261462364 21.668245247524272 29.99999999999999
    endloop
  endfacet
  facet normal 0.949019508355406 -0.31521734210043617 3.635789825575911E-16
    outer loop
      vertex 65.48926261462364 21.668245247524275 29.99999999999999
      vertex 65.48926261462364 21.668245247524233 8.881784197001241E-15
      vertex 78.6312260898217 61.2345319021565 3.552713678800494E-15
    endloop
  endfacet
  facet normal 0.9490195083554059 -0.31521734210043667 4.121723642454935E-16
    outer loop
      vertex 83.65282581475766 76.35297706878673 0.0
      vertex 83.65282581475766 76.35297706878679 29.999999999999968
      vertex 78.63122608982168 61.23453190215649 0.0
    endloop
  endfacet
  facet normal 0.9490195083554059 -0.31521734210043667 4.121723642454935E-16
    outer loop
      vertex 65.48926261462361 21.668245247524286 29.99999999999999
      vertex 78.63122608982168 61.23453190215649 0.0
      vertex 83.65282581475766 76.35297706878679 29.999999999999968
    endloop
  endfacet
  facet normal 0.5793152095602604 0.8151036056674953 -1.4364357070345925E-15
    outer loop
      vertex 36.10000000000003 110.14999999999998 29.99999999999997
      vertex 70.50610705698391 85.69669003881174 -1.7763568394002552E-15
      vertex 36.10000000000003 110.14999999999992 -7.105427357601002E-15
    endloop
  endfacet
  facet normal 0.57931520956026 0.8151036056674955 -1.5534266591246165E-15
    outer loop
      vertex 70.5061070569839 85.69669003881174 0.0
      vertex 59.87641290738086 93.25148853439191 9.268436674917638
      vertex 83.65282581475769 76.3529770687868 29.99999999999997
    endloop
  endfacet
  facet normal 0.57931520956026 0.8151036056674955 -1.5534266591246165E-15
    outer loop
      vertex 83.65282581475769 76.3529770687868 29.99999999999997
      vertex 83.65282581475768 76.35297706878676 0.0
      vertex 70.5061070569839 85.69669003881174 0.0
    endloop
  endfacet
  facet normal 0.5793152095602602 0.8151036056674955 -1.879942706888566E-15
    outer loop
      vertex 59.876412907380846 93.25148853439191 9.26843667491763
      vertex 36.10000000000003 110.14999999999998 29.99999999999997
      vertex 83.65282581475768 76.3529770687868 29.999999999999975
    endloop
  endfacet
  facet normal 0.34834687382446533 -0.49012832425487524 0.7990173222526717
    outer loop
      vertex 36.1 110.15 29.99999999999997
      vertex 36.09524471741854 61.24000037533862 8.881784197001241E-15
      vertex 36.1 61.24338007763172 3.552713678800494E-15
    endloop
  endfacet
  facet normal 0.34834687382481455 -0.4901283242556938 0.7990173222520175
    outer loop
      vertex 36.09524471741854 61.24000037533862 8.881784197001241E-15
      vertex 36.1 110.15 29.99999999999997
      vertex -11.452825814757675 76.35297706878683 29.999999999999975
    endloop
  endfacet
  facet normal 0.5661438809354311 0.1880449957285164 0.802570984811207
    outer loop
      vertex 36.09524471741852 61.2400003753386 8.881784197001241E-15
      vertex 6.710737385376335 21.668245247524304 29.99999999999999
      vertex 36.09706107373854 61.23453190215647 3.552713678800494E-15
    endloop
  endfacet
  facet normal 0.5661438809357693 0.18804499572854613 0.8025709848109616
    outer loop
      vertex 6.710737385376335 21.668245247524304 29.99999999999999
      vertex 36.09524471741852 61.2400003753386 8.881784197001241E-15
      vertex -11.452825814757682 76.35297706878683 29.999999999999975
    endloop
  endfacet
  facet normal 0.0 0.6041844456826982 0.7968444990053521
    outer loop
      vertex 36.09706107373854 61.2345319021565 3.552713678800494E-15
      vertex 65.48926261462364 21.668245247524275 29.99999999999999
      vertex 36.102938926261466 61.2345319021565 3.552713678800494E-15
    endloop
  endfacet
  facet normal 3.5057609269222488E-16 0.6041844456828404 0.7968444990052445
    outer loop
      vertex 65.48926261462364 21.668245247524275 29.99999999999999
      vertex 36.09706107373854 61.2345319021565 3.552713678800494E-15
      vertex 6.710737385376328 21.668245247524304 29.999999999999993
    endloop
  endfacet
  facet normal -0.5661438809357696 0.18804499572854674 0.8025709848109612
    outer loop
      vertex 36.1047552825815 61.24000037533862 8.881784197001241E-15
      vertex 65.48926261462361 21.668245247524275 29.999999999999993
      vertex 83.65282581475768 76.3529770687868 29.999999999999975
    endloop
  endfacet
  facet normal -0.5661438809351692 0.18804499572792427 0.8025709848115304
    outer loop
      vertex 65.48926261462361 21.668245247524275 29.999999999999993
      vertex 36.1047552825815 61.24000037533862 8.881784197001241E-15
      vertex 36.10293892626148 61.2345319021565 8.881784197001241E-15
    endloop
  endfacet
  facet normal -0.34834687382534074 -0.4901283242556595 0.799017322251809
    outer loop
      vertex 36.100000000000016 61.24338007763176 3.552713678800494E-15
      vertex 36.1047552825815 61.24000037533863 3.552713678800494E-15
      vertex 83.65282581475768 76.3529770687868 29.999999999999975
    endloop
  endfacet
  facet normal -0.3483468738248151 -0.4901283242556943 0.7990173222520169
    outer loop
      vertex 83.65282581475768 76.3529770687868 29.999999999999975
      vertex 36.10000000000003 110.14999999999998 29.99999999999997
      vertex 36.100000000000016 61.24338007763176 3.552713678800494E-15
    endloop
  endfacet
endsolid v3d.csg
